<svg width="960" height="720" viewBox="0 0 960 720" fill="none" xmlns="http://www.w3.org/2000/svg">
  <rect width="960" height="720" rx="36" fill="#F5FAFC" />
  <circle cx="151" cy="150" r="110" fill="#DFF4F0" />
  <circle cx="792" cy="132" r="136" fill="#E4ECF7" />
  <circle cx="814" cy="579" r="120" fill="#D6F0EA" />
  <path d="M95 500C165 410 280 352 414 352C548 352 663 410 733 500L767 542C677 606 550 646 414 646C278 646 151 606 61 542L95 500Z" fill="#DCE9F3" />
  <path d="M250 308C250 239.517 305.517 184 374 184H578C646.483 184 702 239.517 702 308V332C702 400.483 646.483 456 578 456H374C305.517 456 250 400.483 250 332V308Z" fill="#153E75" />
  <path d="M320 327C320 269.562 366.562 223 424 223C481.438 223 528 269.562 528 327V338C528 395.438 481.438 442 424 442C366.562 442 320 395.438 320 338V327Z" fill="#F6FBFD" />
  <path d="M431.5 292.5L450.5 330.5H461.5L484.5 286.5H463.5L456.5 301L446.5 323L436.5 301L429.5 286.5H408.5L431.5 330.5H442.5L461.5 292.5H431.5Z" fill="#0F8A7A" />
  <path d="M553 271C553 250.565 569.565 234 590 234H666C686.435 234 703 250.565 703 271V347C703 367.435 686.435 384 666 384H590C569.565 384 553 367.435 553 347V271Z" fill="#0F8A7A" opacity="0.92" />
  <path d="M594 273H642C649.732 273 656 279.268 656 287V333C656 340.732 649.732 347 642 347H594C586.268 347 580 340.732 580 333V287C580 279.268 586.268 273 594 273Z" fill="#F7FCFD" />
  <path d="M150 494C223 436 315 404 414 404C513 404 605 436 678 494" stroke="#153E75" stroke-width="18" stroke-linecap="round" />
  <path d="M419 135C462.078 135 497 169.922 497 213C497 256.078 462.078 291 419 291C375.922 291 341 256.078 341 213C341 169.922 375.922 135 419 135Z" fill="#0F8A7A" opacity="0.12" />
  <path d="M650 133C683.137 133 710 159.863 710 193C710 226.137 683.137 253 650 253C616.863 253 590 226.137 590 193C590 159.863 616.863 133 650 133Z" fill="#153E75" opacity="0.12" />
</svg>
